<svg width="8" height="11" viewBox="0 0 8 11" fill="none" xmlns="http://www.w3.org/2000/svg">
<path d="M0.0197754 10.9999H4.29477C6.42477 10.9999 7.72977 9.82993 7.72977 7.89493C7.72977 6.63492 7.18977 5.77992 6.07977 5.32992C6.76977 4.89492 7.15977 4.12992 7.15977 3.18492C7.15977 1.53492 5.89977 0.544922 3.78478 0.544922H0.0197754V10.9999ZM2.13477 4.57992V2.47992H3.78478C4.57977 2.47992 5.04477 2.82492 5.04477 3.51492C5.04477 4.23492 4.59477 4.57992 3.78478 4.57992H2.13477ZM2.13477 9.04993V6.54492H4.12977C4.84977 6.54492 5.61477 6.78492 5.61477 7.77493C5.61477 8.55493 5.11977 9.04993 4.12977 9.04993H2.13477Z" fill="#FF4B4B"/>
</svg>
