<svg width="18" height="22" viewBox="0 0 18 22" fill="none" xmlns="http://www.w3.org/2000/svg">
<path d="M0 15.9737C0 16.9463 0.415898 17.8195 1.06641 18.4274V20.3947C1.06641 21.0026 1.54629 21.5 2.13281 21.5H3.19922C3.78574 21.5 4.26563 21.0026 4.26563 20.3947V19.2895H12.7969V20.3947C12.7969 21.0026 13.2768 21.5 13.8633 21.5H14.9297C15.5162 21.5 15.9961 21.0026 15.9961 20.3947V18.4274C16.6466 17.8195 17.0625 16.9463 17.0625 15.9737V4.92105C17.0625 1.05263 13.2448 0.5 8.53125 0.5C3.81773 0.5 0 1.05263 0 4.92105V15.9737ZM3.73242 17.0789C2.8473 17.0789 2.13281 16.3384 2.13281 15.4211C2.13281 14.5037 2.8473 13.7632 3.73242 13.7632C4.61754 13.7632 5.33203 14.5037 5.33203 15.4211C5.33203 16.3384 4.61754 17.0789 3.73242 17.0789ZM13.3301 17.0789C12.445 17.0789 11.7305 16.3384 11.7305 15.4211C11.7305 14.5037 12.445 13.7632 13.3301 13.7632C14.2152 13.7632 14.9297 14.5037 14.9297 15.4211C14.9297 16.3384 14.2152 17.0789 13.3301 17.0789ZM14.9297 10.4474H2.13281V4.92105H14.9297V10.4474Z" fill="#FF4B4B"/>
</svg>
