<svg width="24" height="24" viewBox="0 0 24 24" fill="none" xmlns="http://www.w3.org/2000/svg">
<path fill-rule="evenodd" clip-rule="evenodd" d="M16.987 0C17.635 0 18.1604 0.504468 18.1604 1.12676V3.10986H19.8266C20.4747 3.10986 21 3.61433 21 4.23662V22.8732C21 23.4955 20.4747 24 19.8266 24H4.1734C3.52535 24 3 23.4955 3 22.8732V4.23662C3 3.61433 3.52535 3.10986 4.1734 3.10986H5.83964V1.12676C5.83964 0.504468 6.36499 0 7.01304 0H16.987ZM12.7627 19.493H11.2373V21.7465H12.7627V19.493ZM18.6532 5.36338H5.39374V21.7465H8.91395V18.3662C8.91395 17.7439 9.4393 17.2394 10.0874 17.2394H13.9596C14.6076 17.2394 15.133 17.7439 15.133 18.3662V21.7465H18.6532V5.36338ZM8.6558 13.4761C9.01871 13.4761 9.31291 13.7586 9.31291 14.107V15.0873C9.31291 15.4358 9.01871 15.7183 8.6558 15.7183H7.63494C7.27203 15.7183 6.97784 15.4358 6.97784 15.0873V14.107C6.97784 13.7586 7.27203 13.4761 7.63494 13.4761H8.6558ZM12.5046 13.4761C12.8675 13.4761 13.1617 13.7586 13.1617 14.107V15.0873C13.1617 15.4358 12.8675 15.7183 12.5046 15.7183H11.4837C11.1208 15.7183 10.8266 15.4358 10.8266 15.0873V14.107C10.8266 13.7586 11.1208 13.4761 11.4837 13.4761H12.5046ZM16.3651 13.4761C16.728 13.4761 17.0222 13.7586 17.0222 14.107V15.0873C17.0222 15.4358 16.728 15.7183 16.3651 15.7183H15.3442C14.9813 15.7183 14.6871 15.4358 14.6871 15.0873V14.107C14.6871 13.7586 14.9813 13.4761 15.3442 13.4761H16.3651ZM8.6558 10.0958C9.01871 10.0958 9.31291 10.3783 9.31291 10.7268V11.707C9.31291 12.0555 9.01871 12.338 8.6558 12.338H7.63494C7.27203 12.338 6.97784 12.0555 6.97784 11.707V10.7268C6.97784 10.3783 7.27203 10.0958 7.63494 10.0958H8.6558ZM12.5046 10.0958C12.8675 10.0958 13.1617 10.3783 13.1617 10.7268V11.707C13.1617 12.0555 12.8675 12.338 12.5046 12.338H11.4837C11.1208 12.338 10.8266 12.0555 10.8266 11.707V10.7268C10.8266 10.3783 11.1208 10.0958 11.4837 10.0958H12.5046ZM16.3651 10.0958C16.728 10.0958 17.0222 10.3783 17.0222 10.7268V11.707C17.0222 12.0555 16.728 12.338 16.3651 12.338H15.3442C14.9813 12.338 14.6871 12.0555 14.6871 11.707V10.7268C14.6871 10.3783 14.9813 10.0958 15.3442 10.0958H16.3651ZM8.6558 6.72676C9.01871 6.72676 9.31291 7.00926 9.31291 7.35775V8.33803C9.31291 8.68651 9.01871 8.96901 8.6558 8.96901H7.63494C7.27203 8.96901 6.97784 8.68651 6.97784 8.33803V7.35775C6.97784 7.00926 7.27203 6.72676 7.63494 6.72676H8.6558ZM12.5046 6.72676C12.8675 6.72676 13.1617 7.00926 13.1617 7.35775V8.33803C13.1617 8.68651 12.8675 8.96901 12.5046 8.96901H11.4837C11.1208 8.96901 10.8266 8.68651 10.8266 8.33803V7.35775C10.8266 7.00926 11.1208 6.72676 11.4837 6.72676H12.5046ZM16.3651 6.72676C16.728 6.72676 17.0222 7.00926 17.0222 7.35775V8.33803C17.0222 8.68651 16.728 8.96901 16.3651 8.96901H15.3442C14.9813 8.96901 14.6871 8.68651 14.6871 8.33803V7.35775C14.6871 7.00926 14.9813 6.72676 15.3442 6.72676H16.3651ZM15.8136 2.25352H8.18644V3.10986H15.8136V2.25352Z" fill="#3433FA"/>
</svg>
