<svg width="10" height="11" viewBox="0 0 10 11" fill="none" xmlns="http://www.w3.org/2000/svg">
<path fill-rule="evenodd" clip-rule="evenodd" d="M5.10744 10.9313L5.41675 10.6612C8.0178 8.39003 9.33987 6.40692 9.33987 4.66374C9.33987 2.19513 7.41315 0.431305 5.10744 0.431305C2.80172 0.431305 0.875 2.19513 0.875 4.66374C0.875 6.40692 2.19708 8.39003 4.79813 10.6612L5.10744 10.9313ZM5.10743 9.67842C2.90027 7.68925 1.81554 6.00365 1.81554 4.66374C1.81554 2.73403 3.30353 1.37184 5.10743 1.37184C6.91134 1.37184 8.39933 2.73403 8.39933 4.66374C8.39933 6.00365 7.3146 7.68925 5.10743 9.67842ZM5.10743 2.31239C6.40605 2.31239 7.45878 3.36513 7.45878 4.66374C7.45878 5.96236 6.40605 7.01509 5.10743 7.01509C3.80882 7.01509 2.75608 5.96236 2.75608 4.66374C2.75608 3.36513 3.80882 2.31239 5.10743 2.31239ZM3.69662 4.66374C3.69662 3.88457 4.32826 3.25293 5.10743 3.25293C5.8866 3.25293 6.51824 3.88457 6.51824 4.66374C6.51824 5.44291 5.8866 6.07455 5.10743 6.07455C4.32826 6.07455 3.69662 5.44291 3.69662 4.66374Z" fill="#F1A10B"/>
</svg>
