<svg width="22" height="18" viewBox="0 0 22 18" fill="none" xmlns="http://www.w3.org/2000/svg">
<path d="M17.7662 5.0902C17.1241 3.64166 16.0158 2.43976 14.6112 1.66869C13.2066 0.897629 11.5833 0.599928 9.98986 0.821211C8.39646 1.04249 6.92091 1.77055 5.78934 2.89382C4.65776 4.01709 3.93258 5.47361 3.72491 7.04018C2.72288 7.27575 1.84386 7.86436 1.2548 8.69424C0.66573 9.52412 0.407638 10.5375 0.529532 11.5419C0.651426 12.5462 1.14482 13.4717 1.91601 14.1425C2.6872 14.8133 3.68248 15.1827 4.71285 15.1806C4.99159 15.1806 5.25891 15.0719 5.45601 14.8784C5.65311 14.6849 5.76384 14.4225 5.76384 14.1488C5.76384 13.8752 5.65311 13.6128 5.45601 13.4193C5.25891 13.2258 4.99159 13.1171 4.71285 13.1171C4.15537 13.1171 3.62072 12.8997 3.22652 12.5127C2.83232 12.1257 2.61086 11.6009 2.61086 11.0536C2.61086 10.5064 2.83232 9.9815 3.22652 9.59453C3.62072 9.20755 4.15537 8.99015 4.71285 8.99015C4.99159 8.99015 5.25891 8.88145 5.45601 8.68797C5.65311 8.49448 5.76384 8.23205 5.76384 7.95842C5.76653 6.73817 6.20977 5.55836 7.01481 4.62859C7.81986 3.69882 8.93458 3.07931 10.1609 2.8801C11.3873 2.6809 12.6459 2.9149 13.7131 3.54055C14.7803 4.16619 15.5871 5.14297 15.99 6.29733C16.0501 6.47462 16.1581 6.63257 16.3025 6.75432C16.4469 6.87607 16.6222 6.95704 16.8098 6.98859C17.5098 7.11846 18.1444 7.47722 18.6102 8.00643C19.076 8.53564 19.3454 9.20409 19.3747 9.90287C19.4039 10.6016 19.1912 11.2895 18.7713 11.8545C18.3513 12.4194 17.7489 12.8281 17.062 13.0139C16.7917 13.0823 16.56 13.2534 16.4181 13.4894C16.2762 13.7255 16.2356 14.0072 16.3053 14.2726C16.375 14.5381 16.5493 14.7654 16.7897 14.9047C17.0302 15.044 17.3172 15.0839 17.5875 15.0155C18.6936 14.7286 19.6741 14.0952 20.3801 13.2115C21.086 12.3277 21.479 11.242 21.4992 10.1191C21.5194 8.99627 21.1658 7.89759 20.492 6.98995C19.8183 6.08232 18.8613 5.4153 17.7662 5.0902V5.0902ZM13.867 11.3528C13.7693 11.2561 13.6531 11.1794 13.525 11.127C13.3969 11.0746 13.2596 11.0476 13.1208 11.0476C12.9821 11.0476 12.8447 11.0746 12.7166 11.127C12.5886 11.1794 12.4723 11.2561 12.3746 11.3528L11.0188 12.6941L9.66304 11.3528C9.46513 11.1585 9.19671 11.0494 8.91683 11.0494C8.63695 11.0494 8.36853 11.1585 8.17062 11.3528C7.97272 11.5471 7.86154 11.8106 7.86154 12.0854C7.86154 12.3601 7.97272 12.6236 8.17062 12.8179L9.53692 14.1488L8.17062 15.4798C8.07212 15.5757 7.99393 15.6898 7.94057 15.8155C7.88721 15.9412 7.85974 16.0761 7.85974 16.2123C7.85974 16.3485 7.88721 16.4833 7.94057 16.6091C7.99393 16.7348 8.07212 16.8489 8.17062 16.9448C8.26833 17.0415 8.38457 17.1183 8.51264 17.1707C8.64072 17.223 8.77809 17.25 8.91683 17.25C9.05558 17.25 9.19295 17.223 9.32102 17.1707C9.44909 17.1183 9.56534 17.0415 9.66304 16.9448L11.0188 15.6036L12.3746 16.9448C12.4723 17.0415 12.5886 17.1183 12.7166 17.1707C12.8447 17.223 12.9821 17.25 13.1208 17.25C13.2596 17.25 13.3969 17.223 13.525 17.1707C13.6531 17.1183 13.7693 17.0415 13.867 16.9448C13.9655 16.8489 14.0437 16.7348 14.0971 16.6091C14.1504 16.4833 14.1779 16.3485 14.1779 16.2123C14.1779 16.0761 14.1504 15.9412 14.0971 15.8155C14.0437 15.6898 13.9655 15.5757 13.867 15.4798L12.5007 14.1488L13.867 12.8179C13.9655 12.722 14.0437 12.6079 14.0971 12.4821C14.1504 12.3564 14.1779 12.2216 14.1779 12.0854C14.1779 11.9492 14.1504 11.8143 14.0971 11.6886C14.0437 11.5628 13.9655 11.4487 13.867 11.3528V11.3528Z" fill="#9056F0"/>
</svg>
