<svg width="22" height="22" viewBox="0 0 22 22" fill="none" xmlns="http://www.w3.org/2000/svg">
<path d="M11 0.5C8.9233 0.5 6.89323 1.11581 5.16652 2.26957C3.4398 3.42332 2.09399 5.0632 1.29927 6.98182C0.50455 8.90045 0.296615 11.0116 0.701759 13.0484C1.1069 15.0852 2.10693 16.9562 3.57538 18.4246C5.04383 19.8931 6.91475 20.8931 8.95155 21.2982C10.9884 21.7034 13.0996 21.4955 15.0182 20.7007C16.9368 19.906 18.5767 18.5602 19.7304 16.8335C20.8842 15.1068 21.5 13.0767 21.5 11C21.4967 8.21623 20.3894 5.54743 18.421 3.57901C16.4526 1.61059 13.7838 0.503284 11 0.5V0.5ZM11 19.5909C9.30088 19.5909 7.63992 19.0871 6.22715 18.1431C4.81438 17.1991 3.71326 15.8574 3.06304 14.2876C2.41281 12.7178 2.24268 10.9905 2.57417 9.324C2.90565 7.65752 3.72385 6.12677 4.92531 4.92531C6.12677 3.72385 7.65753 2.90564 9.324 2.57416C10.9905 2.24268 12.7178 2.41281 14.2876 3.06303C15.8574 3.71326 17.1991 4.81438 18.1431 6.22715C19.0871 7.63991 19.5909 9.30088 19.5909 11C19.5881 13.2776 18.6821 15.4611 17.0716 17.0716C15.4611 18.6821 13.2776 19.5881 11 19.5909V19.5909ZM11.9545 15.2955V17.2045H10.0455V15.2955H11.9545ZM14.8182 8.61363C14.8192 9.1861 14.691 9.75142 14.4431 10.2674C14.1952 10.7834 13.8339 11.2368 13.3864 11.5937C12.6634 12.154 12.1745 12.963 12.0147 13.8636H10.075C10.1595 13.1277 10.3904 12.4161 10.7541 11.7709C11.1179 11.1256 11.6072 10.5597 12.1932 10.1065C12.4283 9.91834 12.6156 9.67717 12.7397 9.40274C12.8639 9.12831 12.9213 8.8284 12.9073 8.52753C12.8934 8.22666 12.8084 7.93337 12.6594 7.67161C12.5104 7.40985 12.3016 7.18707 12.05 7.02145C11.7696 6.83818 11.447 6.72969 11.1128 6.7063C10.7787 6.68291 10.4441 6.7454 10.1409 6.88782C9.81751 7.04283 9.5461 7.28846 9.3597 7.59484C9.17329 7.90123 9.07991 8.25517 9.09091 8.61363C9.09091 8.8668 8.99034 9.10959 8.81133 9.2886C8.63232 9.46761 8.38953 9.56818 8.13637 9.56818C7.88321 9.56818 7.64041 9.46761 7.4614 9.2886C7.28239 9.10959 7.18182 8.8668 7.18182 8.61363C7.16762 7.88001 7.37004 7.15847 7.76376 6.53928C8.15748 5.92009 8.72503 5.43073 9.39541 5.13241C9.98967 4.86683 10.6412 4.75517 11.29 4.80772C11.9388 4.86027 12.5639 5.07534 13.1076 5.43309C13.6331 5.78092 14.0642 6.25339 14.3627 6.80834C14.6612 7.3633 14.8177 7.98351 14.8182 8.61363Z" fill="white"/>
</svg>
