<svg width="22" height="22" viewBox="0 0 22 22" fill="none" xmlns="http://www.w3.org/2000/svg">
<path fill-rule="evenodd" clip-rule="evenodd" d="M19.1667 0.5H2.83333C1.53833 0.5 0.5 1.55 0.5 2.83333V19.1667C0.5 20.45 1.53833 21.5 2.83333 21.5H19.1667C20.45 21.5 21.5 20.45 21.5 19.1667V2.83333C21.5 1.55 20.45 0.5 19.1667 0.5ZM11 4.7C12.743 4.7 14.15 6.107 14.15 7.85C14.15 9.593 12.743 11 11 11C9.257 11 7.85 9.593 7.85 7.85C7.85 6.107 9.257 4.7 11 4.7ZM18.35 18.35H3.65V17.0695C3.65 14.5085 8.55 13.1 11 13.1C13.45 13.1 18.35 14.5085 18.35 17.0695V18.35Z" fill="#FFBF46"/>
</svg>
