<svg width="24" height="21" viewBox="0 0 24 21" fill="none" xmlns="http://www.w3.org/2000/svg">
<path fill-rule="evenodd" clip-rule="evenodd" d="M12 0.5C15.8646 0.5 20.6154 1.32278 21.44 3.65801C21.4586 3.77832 21.4586 3.90069 21.44 4.021V6.62242H22.7692C23.449 6.62242 24 7.16414 24 7.83238V19.69C24 20.3583 23.449 20.9 22.7692 20.9H1.23077C0.551034 20.9 0 20.3583 0 19.69V7.83238C0 7.16414 0.551034 6.62242 1.23077 6.62242H2.62154V4.021C2.59598 3.9013 2.59598 3.7777 2.62154 3.65801C3.38462 1.32278 8.13538 0.5 12 0.5ZM15.0523 14.3299H13.2308V18.4317H15.0523V14.3299ZM10.7692 14.3299H8.94769V18.4317H10.7692V14.3299ZM11.9877 2.91993C7.86462 2.91993 5.48923 3.8516 5.00923 4.33559V7.78399C5.00923 8.45223 4.4582 8.99395 3.77846 8.99395H2.46154V18.4317H6.43692V13.1199C6.43692 12.4517 6.98796 11.91 7.66769 11.91H16.2831C16.9628 11.91 17.5138 12.4517 17.5138 13.1199V18.4317H21.5385L21.5262 9.04235H20.1969C19.5172 9.04235 18.9662 8.50063 18.9662 7.83238V4.31139C18.5108 3.8637 16.1108 2.91993 11.9877 2.91993ZM8.928 5.3C9.29914 5.3 9.6 5.60086 9.6 5.972V7.028C9.6 7.39914 9.29914 7.7 8.928 7.7H7.872C7.50087 7.7 7.2 7.39914 7.2 7.028V5.972C7.2 5.60086 7.50087 5.3 7.872 5.3H8.928ZM12.528 5.3C12.8991 5.3 13.2 5.60086 13.2 5.972V7.028C13.2 7.39914 12.8991 7.7 12.528 7.7H11.472C11.1009 7.7 10.8 7.39914 10.8 7.028V5.972C10.8 5.60086 11.1009 5.3 11.472 5.3H12.528ZM16.128 5.3C16.4991 5.3 16.8 5.60086 16.8 5.972V7.028C16.8 7.39914 16.4991 7.7 16.128 7.7H15.072C14.7009 7.7 14.4 7.39914 14.4 7.028V5.972C14.4 5.60086 14.7009 5.3 15.072 5.3H16.128Z" fill="#F1A10B"/>
</svg>
