<svg width="154" height="36" viewBox="0 0 154 36" fill="none" xmlns="http://www.w3.org/2000/svg">
<path fill-rule="evenodd" clip-rule="evenodd" d="M45.722 22.9113C49.7112 22.9113 51.6932 21.5996 51.6932 17.4914C51.6932 13.5068 49.7364 12.0712 46.023 12.0712H44.4676V22.9113H45.722ZM40.9302 8.87866H46.0983C51.9191 8.87866 55.2558 12.0466 55.2558 17.6399C55.2558 23.1341 52.0193 26.1287 46.0733 26.1287H40.9302V8.87866Z" fill="#3433FA"/>
<path fill-rule="evenodd" clip-rule="evenodd" d="M65.0899 21.4146H62.2379C61.5184 21.4146 61.0302 21.5132 60.722 21.7348C60.4136 21.9318 60.2593 22.2275 60.2593 22.5968C60.2593 23.3358 60.9018 23.8777 62.0835 23.8777C63.7024 23.8777 65.0641 22.8184 65.0899 21.4146ZM68.5582 18.6808V26.365H65.3723L65.1154 24.9613C64.2161 26.1927 62.803 26.636 61.5184 26.636C58.7694 26.636 56.7908 24.9366 56.7908 22.5476C56.7908 21.1192 57.4588 20.0848 58.6149 19.5182C59.4374 19.1241 60.4651 18.9518 61.7497 18.9518H65.0899V18.6808C65.0899 17.5725 64.2419 16.8583 62.803 16.8583C61.6724 16.8583 60.5936 17.3263 59.5658 18.4346L57.0477 16.415C58.5894 14.7403 60.6962 13.9521 62.9573 13.9521C66.4256 13.9521 68.5582 15.7745 68.5582 18.6808Z" fill="#3433FA"/>
<path fill-rule="evenodd" clip-rule="evenodd" d="M73.8225 25.7821L69.0698 13.9521H72.8417L75.6329 21.9461L78.6255 13.9521H82.3721L75.2558 31.2022H71.5594L73.8225 25.7821Z" fill="#3433FA"/>
<path fill-rule="evenodd" clip-rule="evenodd" d="M82.3721 23.1633L85.0756 21.9811C85.3787 22.7447 85.8588 23.9022 87.5514 23.9022C88.7895 23.9022 89.2445 23.2864 89.2445 22.7939C89.2445 20.9222 83.0541 22.0305 83.0541 17.6219C83.0541 15.0851 85.3535 13.9521 87.6777 13.9521C89.9013 13.9521 91.5435 14.9865 92.5037 16.6122L89.876 18.0406C89.4971 17.3756 88.9158 16.4891 87.6021 16.4891C86.7682 16.4891 86.2881 16.8829 86.2881 17.3509C86.2881 19.075 92.6046 17.942 92.6046 22.4491C92.6046 25.3799 89.9772 26.636 87.6274 26.636C84.9493 26.636 82.9533 24.9613 82.3721 23.1633Z" fill="#3433FA"/>
<path fill-rule="evenodd" clip-rule="evenodd" d="M105.907 18.1348V26.1287H102.439V18.9762C102.439 17.3428 101.719 16.5757 100.229 16.5757C98.1993 16.5757 97.634 18.1596 97.634 21.4759V26.1287H94.1396V8.87866H97.634V15.1897C98.4562 14.1503 99.7153 13.6554 101.334 13.6554C104.212 13.6554 105.907 15.3134 105.907 18.1348Z" fill="#3433FA"/>
<path fill-rule="evenodd" clip-rule="evenodd" d="M116.484 18.878C116.434 17.548 115.305 16.7353 113.9 16.7353C112.168 16.7353 111.466 17.8928 111.316 18.878H116.484ZM119.646 21.4147H111.341C111.491 22.6953 112.369 23.6068 114.151 23.6068C115.18 23.6068 116.158 23.2619 116.936 22.3504L119.294 24.3947C117.964 25.8478 116.258 26.636 114.126 26.636C109.71 26.636 107.953 23.5329 107.953 20.3556C107.953 17.2525 109.659 13.9521 113.925 13.9521C117.789 13.9521 119.721 16.7106 119.721 20.2572C119.721 20.6266 119.696 20.9714 119.646 21.4147Z" fill="#3433FA"/>
<path fill-rule="evenodd" clip-rule="evenodd" d="M129.787 18.878C129.737 17.548 128.607 16.7353 127.202 16.7353C125.471 16.7353 124.769 17.8928 124.618 18.878H129.787ZM132.948 21.4147H124.643C124.794 22.6953 125.672 23.6068 127.453 23.6068C128.482 23.6068 129.46 23.2619 130.238 22.3504L132.597 24.3947C131.267 25.8478 129.561 26.636 127.428 26.636C123.012 26.636 121.256 23.5329 121.256 20.3556C121.256 17.2525 122.962 13.9521 127.227 13.9521C131.091 13.9521 133.023 16.7106 133.023 20.2572C133.023 20.6266 132.998 20.9714 132.948 21.4147Z" fill="#3433FA"/>
<path fill-rule="evenodd" clip-rule="evenodd" d="M139.563 16.657V22.3736C139.563 23.1007 139.87 23.8278 141.153 23.8278C141.641 23.8278 142.18 23.7276 142.744 23.5522V26.2348C141.949 26.5106 141.153 26.636 140.307 26.636C138.049 26.636 136.099 25.5578 136.099 22.6494V16.657H134.046V13.9993H136.099V11.8932L139.563 9.38599V13.9993H142.744V16.657H139.563Z" fill="#3433FA"/>
<path fill-rule="evenodd" clip-rule="evenodd" d="M143.767 23.1633L146.471 21.9811C146.774 22.7447 147.254 23.9022 148.947 23.9022C150.185 23.9022 150.64 23.2864 150.64 22.7939C150.64 20.9222 144.45 22.0305 144.45 17.6219C144.45 15.0851 146.749 13.9521 149.073 13.9521C151.297 13.9521 152.939 14.9865 153.899 16.6122L151.271 18.0406C150.892 17.3756 150.311 16.4891 148.998 16.4891C148.164 16.4891 147.684 16.8829 147.684 17.3509C147.684 19.075 154 17.942 154 22.4491C154 25.3799 151.372 26.636 149.023 26.636C146.345 26.636 144.349 24.9613 143.767 23.1633Z" fill="#3433FA"/>
<path fill-rule="evenodd" clip-rule="evenodd" d="M15.3614 0.345703C25.2439 0.345703 33.2555 8.27544 33.2555 18.0569L33.2531 18.35C33.095 27.9966 25.145 35.7684 15.3614 35.7684H3.61228C3.28082 35.7684 3.01193 35.5022 3.01193 35.1741V30.4741H6.11981V32.692H15.137C23.2511 32.692 30.022 26.3145 30.1458 18.2843C30.2716 10.1109 23.5909 3.42206 15.3614 3.42206H6.11981V7.77954H8.68861C9.02051 7.77954 9.28918 8.04568 9.28918 8.37376V10.2617C9.28918 10.5897 9.02051 10.8559 8.68861 10.8559H0.600442C0.268759 10.8559 8.75153e-05 10.5897 8.75153e-05 10.2617V8.37376C8.75153e-05 8.04568 0.268759 7.77954 0.600442 7.77954H3.01193V0.940141C3.01193 0.611847 3.28082 0.345703 3.61228 0.345703H15.3614ZM6.06738 21.5624V24.6438H8.6141C8.94294 24.6438 9.2093 24.9039 9.2093 25.2248V27.0697C9.2093 27.3905 8.94294 27.6507 8.6141 27.6507H0.595198C0.266364 27.6507 0 27.3905 0 27.0697V25.2248C0 24.9039 0.266364 24.6438 0.595198 24.6438H2.98597V21.5624H6.06738ZM6.06738 12.9374V16.0163H8.6141C8.94294 16.0163 9.2093 16.2766 9.2093 16.5978V18.4444C9.2093 18.7653 8.94294 19.0257 8.6141 19.0257H0.595198C0.266364 19.0257 0 18.7653 0 18.4444V16.5978C0 16.2766 0.266364 16.0163 0.595198 16.0163H2.98597V12.9374H6.06738ZM23.4463 11.9227C23.7779 11.9227 24.0465 12.1861 24.0465 12.5109V14.3788C24.0465 14.7035 23.7779 14.9668 23.4463 14.9668H13.3909C13.0595 14.9668 12.7907 14.7035 12.7907 14.3788V12.5109C12.7907 12.1861 13.0595 11.9227 13.3909 11.9227H23.4463Z" fill="#3433FA"/>
</svg>
