<svg width="122" height="28" viewBox="0 0 122 28" fill="none" xmlns="http://www.w3.org/2000/svg">
<path fill-rule="evenodd" clip-rule="evenodd" d="M36.2214 17.8199C39.3817 17.8199 40.9518 16.7997 40.9518 13.6044C40.9518 10.5053 39.4016 9.38873 36.4598 9.38873H35.2277V17.8199H36.2214ZM32.4253 6.90564H36.5195C41.1308 6.90564 43.7741 9.36958 43.7741 13.7199C43.7741 17.9932 41.2102 20.3223 36.4997 20.3223H32.4253V6.90564Z" fill="#2D2D2D"/>
<path fill-rule="evenodd" clip-rule="evenodd" d="M51.5646 16.6558H49.3053C48.7353 16.6558 48.3485 16.7325 48.1043 16.9048C47.86 17.0581 47.7378 17.288 47.7378 17.5753C47.7378 18.1501 48.2467 18.5715 49.1829 18.5715C50.4654 18.5715 51.5442 17.7476 51.5646 16.6558ZM54.3123 14.5295V20.5061H51.7883L51.5848 19.4143C50.8724 20.3721 49.753 20.7169 48.7353 20.7169C46.5575 20.7169 44.99 19.3951 44.99 17.5371C44.99 16.426 45.5192 15.6215 46.4351 15.1808C47.0866 14.8743 47.9008 14.7403 48.9185 14.7403H51.5646V14.5295C51.5646 13.6675 50.8928 13.112 49.753 13.112C48.8573 13.112 48.0026 13.476 47.1884 14.338L45.1935 12.7672C46.4149 11.4647 48.0839 10.8517 49.8751 10.8517C52.6228 10.8517 54.3123 12.269 54.3123 14.5295Z" fill="#2D2D2D"/>
<path fill-rule="evenodd" clip-rule="evenodd" d="M58.4827 20.0527L54.7175 10.8517H57.7056L59.9168 17.0692L62.2876 10.8517H65.2557L59.6181 24.2684H56.6898L58.4827 20.0527Z" fill="#2D2D2D"/>
<path fill-rule="evenodd" clip-rule="evenodd" d="M65.2557 18.0159L67.3975 17.0964C67.6376 17.6904 68.0179 18.5906 69.3588 18.5906C70.3397 18.5906 70.7001 18.1117 70.7001 17.7286C70.7001 16.2729 65.796 17.1349 65.796 13.7059C65.796 11.7329 67.6177 10.8517 69.4589 10.8517C71.2205 10.8517 72.5214 11.6562 73.2821 12.9206L71.2004 14.0316C70.9002 13.5144 70.4397 12.8249 69.399 12.8249C68.7384 12.8249 68.3581 13.1312 68.3581 13.4952C68.3581 14.8361 73.362 13.9549 73.362 17.4604C73.362 19.7399 71.2806 20.7169 69.4191 20.7169C67.2974 20.7169 65.7162 19.4144 65.2557 18.0159Z" fill="#2D2D2D"/>
<path fill-rule="evenodd" clip-rule="evenodd" d="M83.9004 14.1048V20.3223H81.1527V14.7593C81.1527 13.4889 80.5827 12.8922 79.4022 12.8922C77.7942 12.8922 77.3464 14.1242 77.3464 16.7035V20.3223H74.5781V6.90564H77.3464V11.8142C77.9977 11.0058 78.9952 10.6209 80.2773 10.6209C82.5572 10.6209 83.9004 11.9104 83.9004 14.1048Z" fill="#2D2D2D"/>
<path fill-rule="evenodd" clip-rule="evenodd" d="M92.2796 14.6829C92.2401 13.6484 91.3456 13.0164 90.2323 13.0164C88.8608 13.0164 88.3043 13.9166 88.1852 14.6829H92.2796ZM94.7842 16.6559H88.205C88.3243 17.6519 89.0198 18.3608 90.4311 18.3608C91.2463 18.3608 92.0212 18.0926 92.6375 17.3837L94.5061 18.9737C93.4524 20.1039 92.1008 20.7169 90.4113 20.7169C86.9131 20.7169 85.5216 18.3033 85.5216 15.8322C85.5216 13.4186 86.8732 10.8517 90.2521 10.8517C93.3132 10.8517 94.8439 12.9972 94.8439 15.7556C94.8439 16.0429 94.8239 16.3111 94.7842 16.6559Z" fill="#2D2D2D"/>
<path fill-rule="evenodd" clip-rule="evenodd" d="M102.818 14.6829C102.778 13.6484 101.884 13.0164 100.771 13.0164C99.3989 13.0164 98.8426 13.9166 98.7233 14.6829H102.818ZM105.322 16.6559H98.7431C98.8624 17.6519 99.5581 18.3608 100.969 18.3608C101.784 18.3608 102.559 18.0926 103.176 17.3837L105.044 18.9737C103.991 20.1039 102.639 20.7169 100.949 20.7169C97.4511 20.7169 96.0598 18.3033 96.0598 15.8322C96.0598 13.4186 97.4112 10.8517 100.79 10.8517C103.852 10.8517 105.382 12.9972 105.382 15.7556C105.382 16.0429 105.362 16.3111 105.322 16.6559Z" fill="#2D2D2D"/>
<path fill-rule="evenodd" clip-rule="evenodd" d="M110.563 12.9555V17.4018C110.563 17.9673 110.807 18.5328 111.823 18.5328C112.209 18.5328 112.636 18.4549 113.083 18.3184V20.4049C112.453 20.6195 111.823 20.717 111.152 20.717C109.364 20.717 107.819 19.8784 107.819 17.6163V12.9555H106.193V10.8884H107.819V9.25035L110.563 7.30029V10.8884H113.083V12.9555H110.563Z" fill="#2D2D2D"/>
<path fill-rule="evenodd" clip-rule="evenodd" d="M113.894 18.0159L116.035 17.0964C116.276 17.6904 116.656 18.5906 117.997 18.5906C118.978 18.5906 119.338 18.1117 119.338 17.7286C119.338 16.2729 114.434 17.1349 114.434 13.7059C114.434 11.7329 116.256 10.8517 118.097 10.8517C119.858 10.8517 121.159 11.6562 121.92 12.9206L119.839 14.0316C119.538 13.5144 119.078 12.8249 118.037 12.8249C117.377 12.8249 116.996 13.1312 116.996 13.4952C116.996 14.8361 122 13.9549 122 17.4604C122 19.7399 119.918 20.7169 118.057 20.7169C115.935 20.7169 114.354 19.4144 113.894 18.0159Z" fill="#2D2D2D"/>
<path fill-rule="evenodd" clip-rule="evenodd" d="M12.1694 0.268921C19.9984 0.268921 26.3452 6.4365 26.3452 14.0443L26.3433 14.2723C26.2182 21.7752 19.9201 27.8199 12.1694 27.8199H2.86168C2.59909 27.8199 2.38607 27.6129 2.38607 27.3577V23.7021H4.84816V25.4272H11.9916C18.4197 25.4272 23.7837 20.4669 23.8818 14.2212C23.9814 7.86411 18.6889 2.66164 12.1694 2.66164H4.84816V6.05079H6.88318C7.14612 6.05079 7.35896 6.25779 7.35896 6.51296V7.98134C7.35896 8.23651 7.14612 8.44351 6.88318 8.44351H0.475675C0.212913 8.44351 6.93303e-05 8.23651 6.93303e-05 7.98134V6.51296C6.93303e-05 6.25779 0.212913 6.05079 0.475675 6.05079H2.38607V0.731262C2.38607 0.475922 2.59909 0.268921 2.86168 0.268921H12.1694ZM4.80662 16.7708V19.1674H6.82416C7.08466 19.1674 7.29568 19.3698 7.29568 19.6193V21.0542C7.29568 21.3038 7.08466 21.5061 6.82416 21.5061H0.471521C0.211016 21.5061 0 21.3038 0 21.0542V19.6193C0 19.3698 0.211016 19.1674 0.471521 19.1674H2.36551V16.7708H4.80662ZM4.80662 10.0625V12.4572H6.82416C7.08466 12.4572 7.29568 12.6596 7.29568 12.9094V14.3457C7.29568 14.5953 7.08466 14.7978 6.82416 14.7978H0.471521C0.211016 14.7978 0 14.5953 0 14.3457V12.9094C0 12.6596 0.211016 12.4572 0.471521 12.4572H2.36551V10.0625H4.80662ZM18.5743 9.27327C18.837 9.27327 19.0498 9.4781 19.0498 9.73076V11.1836C19.0498 11.4361 18.837 11.6409 18.5743 11.6409H10.6084C10.3459 11.6409 10.1329 11.4361 10.1329 11.1836V9.73076C10.1329 9.4781 10.3459 9.27327 10.6084 9.27327H18.5743Z" fill="#2D2D2D"/>
</svg>
