<svg width="40" height="44" viewBox="0 0 40 44" fill="none" xmlns="http://www.w3.org/2000/svg">
<path fill-rule="evenodd" clip-rule="evenodd" d="M18.4769 0C30.3636 0 40 9.84987 40 21.9999L39.9971 22.3639C39.807 34.3464 30.2447 44 18.4769 44H4.34489C3.9462 44 3.62277 43.6694 3.62277 43.2619V37.4237H7.36097V40.1787H18.2069C27.9667 40.1787 36.1107 32.257 36.2597 22.2823C36.411 12.1298 28.3754 3.82127 18.4769 3.82127H7.36097V9.23388H10.4507C10.85 9.23388 11.1731 9.56447 11.1731 9.97199V12.317C11.1731 12.7246 10.85 13.0551 10.4507 13.0551H0.722218C0.323267 13.0551 0.000105264 12.7246 0.000105264 12.317V9.97199C0.000105264 9.56447 0.323267 9.23388 0.722218 9.23388H3.62277V0.738377C3.62277 0.330588 3.9462 0 4.34489 0H18.4769ZM7.2979 26.3542V30.1817H10.3611C10.7567 30.1817 11.077 30.5048 11.077 30.9034V33.195C11.077 33.5935 10.7567 33.9166 10.3611 33.9166H0.71591C0.320385 33.9166 0 33.5935 0 33.195V30.9034C0 30.5048 0.320385 30.1817 0.71591 30.1817H3.59155V26.3542H7.2979ZM7.2979 15.6407V19.4651H10.3611C10.7567 19.4651 11.077 19.7885 11.077 20.1874V22.4811C11.077 22.8798 10.7567 23.2032 10.3611 23.2032H0.71591C0.320385 23.2032 0 22.8798 0 22.4811V20.1874C0 19.7885 0.320385 19.4651 0.71591 19.4651H3.59155V15.6407H7.2979ZM28.2014 14.3803C28.6003 14.3803 28.9234 14.7074 28.9234 15.1109V17.4312C28.9234 17.8344 28.6003 18.1615 28.2014 18.1615H16.1067C15.7081 18.1615 15.3848 17.8344 15.3848 17.4312V15.1109C15.3848 14.7074 15.7081 14.3803 16.1067 14.3803H28.2014Z" fill="#3433FA"/>
</svg>
