<svg width="234" height="290" viewBox="0 0 234 290" fill="none" xmlns="http://www.w3.org/2000/svg">
<path d="M11.5647 92.165L21.7279 103.646H26.4331V92.165H11.5647Z" fill="#C33838"/>
<g filter="url(#filter0_d)">
<path d="M22.2925 28.567C22.2925 21.0767 28.3692 15.0072 35.8594 15.016L181.704 15.1882L209.935 43.6075L231.203 64.6868V271.339C231.203 278.823 225.136 284.89 217.652 284.89H35.8434C28.3595 284.89 22.2925 278.823 22.2925 271.339V28.567Z" fill="white"/>
<path d="M209.717 43.8243L209.719 43.826L230.895 64.815V271.339C230.895 278.653 224.966 284.582 217.652 284.582H35.8434C28.5293 284.582 22.6 278.653 22.6 271.339V28.567C22.6 21.2467 28.5388 15.3149 35.8591 15.3236L181.576 15.4956L209.717 43.8243Z" stroke="#EBEEF2" stroke-width="0.615092"/>
</g>
<rect x="31.8647" y="111.174" width="189.572" height="36.8887" rx="3.95236" fill="white" stroke="#A7B3CC" stroke-width="0.376415"/>
<path d="M163.536 127.188V128.14H166.443L164 132.96H165.142L167.701 127.718V127.188H163.536ZM168.852 130.144H169.937V129.06H168.852V130.144ZM168.852 132.96H169.937V131.884H168.852V132.96ZM173.225 133.043C174.774 133.043 175.163 131.511 175.163 130.087C175.163 128.646 174.757 127.097 173.167 127.097C171.42 127.097 171.221 128.844 171.221 130.078C171.221 131.296 171.436 133.043 173.225 133.043ZM173.2 132.091C172.265 132.091 172.24 131.022 172.24 130.078C172.24 129.101 172.265 128.049 173.167 128.049C174.07 128.049 174.095 129.093 174.095 130.07C174.095 130.997 174.078 132.091 173.2 132.091ZM178.077 133.043C179.626 133.043 180.015 131.511 180.015 130.087C180.015 128.646 179.609 127.097 178.019 127.097C176.272 127.097 176.073 128.844 176.073 130.078C176.073 131.296 176.289 133.043 178.077 133.043ZM178.053 132.091C177.117 132.091 177.092 131.022 177.092 130.078C177.092 129.101 177.117 128.049 178.019 128.049C178.922 128.049 178.947 129.093 178.947 130.07C178.947 130.997 178.93 132.091 178.053 132.091ZM183.204 132.96H184.231V130.567H185.092C186.368 130.567 187.055 129.971 187.055 128.853C187.055 127.751 186.384 127.188 185.092 127.188H183.204V132.96ZM184.231 129.615V128.14H184.985C185.722 128.14 186.02 128.347 186.02 128.869C186.02 129.391 185.713 129.615 184.985 129.615H184.231ZM192.504 127.188L191.013 131.254L189.531 127.188H188.048V132.96H189.084V128.646L190.516 132.455H191.518L192.951 128.646V132.96H193.986V127.188H192.504Z" fill="#2D2D2D"/>
<path d="M53.1827 132.442H54.8058C56.7518 132.442 57.8035 131.44 57.8035 129.602C57.8035 127.73 56.7187 126.67 54.814 126.67H53.1827V132.442ZM54.0687 131.623V127.49H54.8058C56.2384 127.49 56.9092 128.153 56.9092 129.569C56.9092 130.993 56.2384 131.623 54.723 131.623H54.0687ZM60.504 132.517C61.7296 132.517 62.5163 131.565 62.5163 130.397C62.5163 129.221 61.7296 128.285 60.504 128.285C59.2701 128.285 58.4834 129.221 58.4834 130.397C58.4834 131.565 59.2701 132.517 60.504 132.517ZM60.504 131.772C59.709 131.772 59.3364 131.151 59.3364 130.397C59.3364 129.643 59.709 129.031 60.504 129.031C61.2907 129.031 61.6634 129.643 61.6634 130.397C61.6634 131.142 61.299 131.772 60.504 131.772ZM65.0894 132.517C66.315 132.517 67.1017 131.565 67.1017 130.397C67.1017 129.221 66.315 128.285 65.0894 128.285C63.8555 128.285 63.0688 129.221 63.0688 130.397C63.0688 131.565 63.8555 132.517 65.0894 132.517ZM65.0894 131.772C64.2944 131.772 63.9217 131.151 63.9217 130.397C63.9217 129.643 64.2944 129.031 65.0894 129.031C65.8761 129.031 66.2487 129.643 66.2487 130.397C66.2487 131.142 65.8844 131.772 65.0894 131.772ZM70.006 128.285C69.5588 128.285 69.0868 128.517 68.8797 129.031V128.36H68.0185V132.442H68.8715V130.314C68.8715 129.503 69.2276 129.097 69.8404 129.097C70.0308 129.097 70.1882 129.146 70.3455 129.238L70.7596 128.492C70.5111 128.343 70.271 128.285 70.006 128.285ZM72.4799 132.517C73.2583 132.517 74.0285 132.103 74.0285 131.192C74.0285 129.685 71.8174 130.132 71.8174 129.395C71.8174 129.146 72.0576 128.973 72.4385 128.973C72.9105 128.973 73.1672 129.229 73.3246 129.519L73.9871 129.155C73.6889 128.592 73.159 128.285 72.4716 128.285C71.6684 128.285 71.0059 128.699 71.0059 129.461C71.0059 130.952 73.1921 130.422 73.1921 131.242C73.1921 131.531 72.9354 131.796 72.4468 131.796C71.8671 131.796 71.5938 131.432 71.4696 131.093L70.7823 131.399C70.981 132.037 71.6352 132.517 72.4799 132.517Z" fill="#2D2D2D"/>
<path d="M42.0278 124.96C39.4565 124.96 37.3696 127.047 37.3696 129.618C37.3696 132.19 39.4565 134.276 42.0278 134.276C44.5991 134.276 46.6859 132.19 46.6859 129.618C46.6859 127.047 44.5991 124.96 42.0278 124.96ZM41.0961 131.81L39.4325 130.147L40.0893 129.49L41.0961 130.492L43.9662 127.622L44.623 128.283L41.0961 131.81Z" fill="#07C27F"/>
<rect x="202.992" y="123.407" width="14.492" height="14.492" rx="2.07028" fill="white"/>
<rect opacity="0.2" x="202.992" y="123.407" width="14.492" height="14.492" rx="2.07028" fill="#F1A10B"/>
<path d="M209.418 132.465H210.25L208.712 128.677H208.141L206.592 132.465H207.429L207.695 131.753H209.152L209.418 132.465ZM207.962 131.046L208.429 129.813L208.891 131.046H207.962Z" fill="#F1A10B"/>
<path d="M211.201 132.525C211.326 132.525 211.478 132.497 211.636 132.438V131.856C211.565 131.872 211.5 131.883 211.446 131.883C211.337 131.883 211.272 131.851 211.272 131.726V128.677H210.538V131.802C210.538 132.302 210.826 132.525 211.201 132.525Z" fill="#F1A10B"/>
<path d="M212.714 132.525C212.839 132.525 212.991 132.497 213.149 132.438V131.856C213.078 131.872 213.013 131.883 212.958 131.883C212.85 131.883 212.785 131.851 212.785 131.726V128.677H212.051V131.802C212.051 132.302 212.339 132.525 212.714 132.525Z" fill="#F1A10B"/>
<rect x="31.8908" y="151.45" width="189.572" height="36.8887" rx="3.95236" fill="white" stroke="#A7B3CC" stroke-width="0.376415"/>
<path d="M165.632 174.32C166.75 174.32 167.769 173.723 167.769 172.531C167.769 171.901 167.487 171.396 166.932 171.098C167.272 170.858 167.487 170.502 167.487 170.005C167.487 168.986 166.593 168.382 165.632 168.382C164.672 168.382 163.777 168.986 163.777 170.005C163.777 170.502 163.993 170.858 164.332 171.098C163.777 171.396 163.496 171.901 163.496 172.531C163.496 173.732 164.523 174.32 165.632 174.32ZM165.632 170.817C165.119 170.817 164.771 170.535 164.771 170.071C164.771 169.616 165.127 169.334 165.632 169.334C166.137 169.334 166.494 169.616 166.494 170.071C166.494 170.535 166.146 170.817 165.632 170.817ZM165.632 173.375C164.986 173.375 164.49 173.061 164.49 172.44C164.49 171.835 164.962 171.496 165.632 171.496C166.303 171.496 166.775 171.835 166.775 172.44C166.775 173.061 166.278 173.375 165.632 173.375ZM168.878 171.421H169.963V170.336H168.878V171.421ZM168.878 174.237H169.963V173.16H168.878V174.237ZM173.251 174.32C174.8 174.32 175.189 172.787 175.189 171.363C175.189 169.922 174.783 168.374 173.193 168.374C171.446 168.374 171.247 170.121 171.247 171.355C171.247 172.572 171.463 174.32 173.251 174.32ZM173.226 173.367C172.291 173.367 172.266 172.299 172.266 171.355C172.266 170.378 172.291 169.326 173.193 169.326C174.096 169.326 174.121 170.369 174.121 171.347C174.121 172.274 174.104 173.367 173.226 173.367ZM178.104 174.32C179.652 174.32 180.041 172.787 180.041 171.363C180.041 169.922 179.636 168.374 178.046 168.374C176.298 168.374 176.099 170.121 176.099 171.355C176.099 172.572 176.315 174.32 178.104 174.32ZM178.079 173.367C177.143 173.367 177.118 172.299 177.118 171.355C177.118 170.378 177.143 169.326 178.046 169.326C178.948 169.326 178.973 170.369 178.973 171.347C178.973 172.274 178.956 173.367 178.079 173.367ZM183.23 174.237H184.257V171.843H185.118C186.394 171.843 187.081 171.247 187.081 170.129C187.081 169.028 186.41 168.465 185.118 168.465H183.23V174.237ZM184.257 170.891V169.417H185.011C185.748 169.417 186.046 169.624 186.046 170.146C186.046 170.668 185.74 170.891 185.011 170.891H184.257ZM192.53 168.465L191.039 172.531L189.557 168.465H188.075V174.237H189.11V169.922L190.542 173.732H191.544L192.977 169.922V174.237H194.012V168.465H192.53Z" fill="#2D2D2D"/>
<path d="M54.807 173.879C55.9664 173.879 56.7614 173.2 56.7614 172.165C56.7614 171.37 56.3722 170.931 55.1134 170.451C54.2356 170.112 53.921 169.863 53.921 169.474C53.921 169.076 54.2688 168.753 54.7491 168.753C55.1714 168.753 55.5441 168.994 55.7594 169.408L56.4964 168.952C56.1403 168.306 55.5358 167.967 54.7739 167.967C53.7305 167.967 53.0349 168.58 53.0349 169.515C53.0349 170.277 53.4572 170.708 54.6497 171.163C55.5606 171.519 55.8753 171.793 55.8753 172.24C55.8753 172.753 55.4613 173.084 54.8236 173.084C54.1114 173.084 53.6228 172.67 53.54 171.991L52.654 172.215C52.8196 173.209 53.6808 173.879 54.807 173.879ZM59.7972 169.656C59.2424 169.656 58.7952 169.863 58.5302 170.236V168.041H57.6772V173.813H58.5302V172.099C58.5302 170.94 58.8532 170.401 59.5488 170.401C60.0953 170.401 60.352 170.724 60.352 171.437V173.813H61.205V171.221C61.205 170.211 60.7081 169.656 59.7972 169.656ZM64.048 173.888C65.2736 173.888 66.0603 172.935 66.0603 171.768C66.0603 170.592 65.2736 169.656 64.048 169.656C62.8141 169.656 62.0274 170.592 62.0274 171.768C62.0274 172.935 62.8141 173.888 64.048 173.888ZM64.048 173.142C63.253 173.142 62.8804 172.521 62.8804 171.768C62.8804 171.014 63.253 170.401 64.048 170.401C64.8347 170.401 65.2074 171.014 65.2074 171.768C65.2074 172.513 64.843 173.142 64.048 173.142ZM67.584 173.813H68.3541L69.2568 170.931L70.1511 173.813H70.9296L72.1635 169.731H71.2608L70.4907 172.505L69.6212 169.731H68.8841L68.0063 172.513L67.2527 169.731H66.3418L67.584 173.813ZM76.7634 173.879C77.9227 173.879 78.7177 173.2 78.7177 172.165C78.7177 171.37 78.3285 170.931 77.0698 170.451C76.192 170.112 75.8773 169.863 75.8773 169.474C75.8773 169.076 76.2251 168.753 76.7054 168.753C77.1277 168.753 77.5004 168.994 77.7157 169.408L78.4527 168.952C78.0966 168.306 77.4921 167.967 76.7302 167.967C75.6868 167.967 74.9912 168.58 74.9912 169.515C74.9912 170.277 75.4135 170.708 76.606 171.163C77.517 171.519 77.8316 171.793 77.8316 172.24C77.8316 172.753 77.4176 173.084 76.7799 173.084C76.0678 173.084 75.5792 172.67 75.4964 171.991L74.6103 172.215C74.7759 173.209 75.6371 173.879 76.7634 173.879ZM81.678 173.076C81.4958 173.134 81.3302 173.167 81.1894 173.167C80.8665 173.167 80.676 173.002 80.676 172.654V170.418H81.678V169.731H80.676V168.083L79.8231 168.712V169.731H79.1523V170.418H79.8231V172.728C79.8231 173.548 80.3365 173.888 80.9824 173.888C81.206 173.888 81.4462 173.846 81.6863 173.772L81.678 173.076ZM84.1655 169.656C83.4367 169.656 82.8571 169.938 82.385 170.517L83.0061 171.039C83.3125 170.617 83.71 170.401 84.1572 170.401C84.6955 170.401 85.0184 170.716 85.0184 171.246V171.387H84.0661C83.4864 171.387 83.1055 171.453 82.8239 171.594C82.4596 171.776 82.2608 172.124 82.2608 172.588C82.2608 173.366 82.8405 173.888 83.71 173.888C84.2897 173.888 84.7617 173.648 85.0267 173.234L85.093 173.813H85.8714V171.246C85.8714 170.252 85.2255 169.656 84.1655 169.656ZM83.8674 173.167C83.4036 173.167 83.1138 172.952 83.1138 172.604C83.1138 172.43 83.1717 172.29 83.296 172.207C83.4533 172.082 83.6934 172.041 84.1655 172.041H85.0184V172.058C85.0184 172.704 84.5298 173.167 83.8674 173.167ZM89.0205 169.656C88.5733 169.656 88.1013 169.888 87.8942 170.401V169.731H87.033V173.813H87.886V171.685C87.886 170.873 88.2421 170.468 88.8549 170.468C89.0453 170.468 89.2027 170.517 89.36 170.608L89.7741 169.863C89.5256 169.714 89.2855 169.656 89.0205 169.656ZM92.5875 173.076C92.4053 173.134 92.2396 173.167 92.0989 173.167C91.7759 173.167 91.5854 173.002 91.5854 172.654V170.418H92.5875V169.731H91.5854V168.083L90.7325 168.712V169.731H90.0617V170.418H90.7325V172.728C90.7325 173.548 91.2459 173.888 91.8918 173.888C92.1154 173.888 92.3556 173.846 92.5957 173.772L92.5875 173.076ZM94.8748 173.888C95.6532 173.888 96.4234 173.474 96.4234 172.563C96.4234 171.056 94.2123 171.503 94.2123 170.766C94.2123 170.517 94.4525 170.343 94.8334 170.343C95.3054 170.343 95.5621 170.6 95.7195 170.89L96.382 170.526C96.0838 169.963 95.5538 169.656 94.8665 169.656C94.0632 169.656 93.4007 170.07 93.4007 170.832C93.4007 172.323 95.587 171.793 95.587 172.612C95.587 172.902 95.3303 173.167 94.8417 173.167C94.262 173.167 93.9887 172.803 93.8645 172.463L93.1772 172.77C93.3759 173.407 94.0301 173.888 94.8748 173.888Z" fill="#2D2D2D"/>
<path d="M42.0541 165.237C39.4828 165.237 37.396 167.324 37.396 169.895C37.396 172.466 39.4828 174.553 42.0541 174.553C44.6254 174.553 46.7123 172.466 46.7123 169.895C46.7123 167.324 44.6254 165.237 42.0541 165.237ZM41.1225 172.087L39.4589 170.423L40.1157 169.767L41.1225 170.769L43.9926 167.899L44.6494 168.56L41.1225 172.087Z" fill="#07C27F"/>
<rect x="203.019" y="163.684" width="14.492" height="14.492" rx="2.07028" fill="white"/>
<rect opacity="0.2" x="203.019" y="163.684" width="14.492" height="14.492" rx="2.07028" fill="#F1A10B"/>
<path d="M209.444 172.742H210.276L208.738 168.954H208.167L206.618 172.742H207.455L207.722 172.03H209.178L209.444 172.742ZM207.988 171.323L208.455 170.09L208.917 171.323H207.988Z" fill="#F1A10B"/>
<path d="M211.227 172.801C211.352 172.801 211.505 172.774 211.662 172.714V172.133C211.592 172.149 211.526 172.16 211.472 172.16C211.363 172.16 211.298 172.127 211.298 172.002V168.954H210.564V172.079C210.564 172.579 210.852 172.801 211.227 172.801Z" fill="#F1A10B"/>
<path d="M212.74 172.801C212.865 172.801 213.017 172.774 213.175 172.714V172.133C213.104 172.149 213.039 172.16 212.985 172.16C212.876 172.16 212.811 172.127 212.811 172.002V168.954H212.077V172.079C212.077 172.579 212.365 172.801 212.74 172.801Z" fill="#F1A10B"/>
<rect x="31.8908" y="191.727" width="189.572" height="36.8887" rx="3.95236" fill="white" stroke="#A7B3CC" stroke-width="0.376415"/>
<path d="M160.617 207.694V208.042C160.617 208.431 160.435 208.597 160.037 208.597H159.267V209.425H160.617V213.466H161.611V207.694H160.617ZM165.469 207.694V208.042C165.469 208.431 165.287 208.597 164.89 208.597H164.12V209.425H165.469V213.466H166.463V207.694H165.469ZM168.831 210.65H169.916V209.566H168.831V210.65ZM168.831 213.466H169.916V212.39H168.831V213.466ZM173.204 213.549C174.753 213.549 175.142 212.017 175.142 210.593C175.142 209.152 174.736 207.603 173.146 207.603C171.399 207.603 171.2 209.35 171.2 210.584C171.2 211.802 171.416 213.549 173.204 213.549ZM173.179 212.597C172.244 212.597 172.219 211.528 172.219 210.584C172.219 209.607 172.244 208.555 173.146 208.555C174.049 208.555 174.074 209.599 174.074 210.576C174.074 211.503 174.057 212.597 173.179 212.597ZM178.056 213.549C179.605 213.549 179.994 212.017 179.994 210.593C179.994 209.152 179.588 207.603 177.999 207.603C176.251 207.603 176.052 209.35 176.052 210.584C176.052 211.802 176.268 213.549 178.056 213.549ZM178.032 212.597C177.096 212.597 177.071 211.528 177.071 210.584C177.071 209.607 177.096 208.555 177.999 208.555C178.901 208.555 178.926 209.599 178.926 210.576C178.926 211.503 178.909 212.597 178.032 212.597ZM183.183 213.466H184.21V211.073H185.071C186.347 211.073 187.034 210.477 187.034 209.359C187.034 208.257 186.363 207.694 185.071 207.694H183.183V213.466ZM184.21 210.12V208.646H184.964C185.701 208.646 185.999 208.853 185.999 209.375C185.999 209.897 185.693 210.12 184.964 210.12H184.21ZM192.483 207.694L190.992 211.76L189.51 207.694H188.027V213.466H189.063V209.152L190.495 212.961H191.497L192.93 209.152V213.466H193.965V207.694H192.483Z" fill="#2D2D2D"/>
<path d="M53.2088 214.09H56.6123V213.27H54.0949V208.318H53.2088V214.09ZM57.369 209.212H58.2799V208.318H57.369V209.212ZM57.4021 214.09H58.255V210.007H57.4021V214.09ZM61.6572 209.933C61.1272 209.933 60.6635 210.123 60.3819 210.512V210.007H59.529V214.09H60.3819V212.392C60.3819 211.523 60.531 210.678 61.4088 210.678C62.1127 210.678 62.2038 211.233 62.2038 211.713V214.09H63.0567V211.498C63.0567 210.496 62.5599 209.933 61.6572 209.933ZM67.6473 211.945C67.6473 210.877 67.0676 209.933 65.8006 209.933C64.5004 209.933 63.9042 210.976 63.9042 212.069C63.9042 213.187 64.517 214.164 65.8668 214.164C66.5376 214.164 67.051 213.949 67.5148 213.444L66.9185 212.93C66.6121 213.278 66.2726 213.394 65.8751 213.394C65.1795 213.394 64.7903 212.972 64.7572 212.318H67.6224C67.639 212.193 67.6473 212.069 67.6473 211.945ZM64.7572 211.663C64.7986 211.15 65.1298 210.645 65.8006 210.645C66.4051 210.645 66.8109 211.034 66.8274 211.614V211.663H64.7572ZM73.1738 214.164C74.3829 214.164 75.2855 213.576 75.6996 212.516L74.8715 212.202C74.5982 212.93 74.0019 213.32 73.1738 213.32C72.0062 213.32 71.3188 212.541 71.3188 211.191C71.3188 209.85 71.9979 209.08 73.1904 209.08C74.0185 209.08 74.5982 209.452 74.8715 210.173L75.683 209.858C75.2689 208.806 74.3829 208.235 73.1904 208.235C71.4928 208.235 70.4328 209.378 70.4328 211.2C70.4328 213.013 71.4928 214.164 73.1738 214.164ZM78.6481 209.933C78.0933 209.933 77.6461 210.14 77.3811 210.512V208.318H76.5281V214.09H77.3811V212.376C77.3811 211.216 77.7041 210.678 78.3997 210.678C78.9462 210.678 79.2029 211.001 79.2029 211.713V214.09H80.0559V211.498C80.0559 210.487 79.559 209.933 78.6481 209.933ZM84.6462 211.945C84.6462 210.877 84.0666 209.933 82.7995 209.933C81.4994 209.933 80.9032 210.976 80.9032 212.069C80.9032 213.187 81.516 214.164 82.8658 214.164C83.5366 214.164 84.05 213.949 84.5137 213.444L83.9175 212.93C83.6111 213.278 83.2716 213.394 82.8741 213.394C82.1785 213.394 81.7892 212.972 81.7561 212.318H84.6214C84.638 212.193 84.6462 212.069 84.6462 211.945ZM81.7561 211.663C81.7975 211.15 82.1288 210.645 82.7995 210.645C83.4041 210.645 83.8098 211.034 83.8264 211.614V211.663H81.7561ZM87.159 214.164C87.9457 214.164 88.5668 213.742 88.8401 212.98L88.0617 212.682C87.9375 213.137 87.5897 213.419 87.159 213.419C86.3972 213.419 86.0991 212.773 86.0991 212.061C86.0991 211.349 86.4055 210.678 87.1508 210.678C87.5979 210.678 87.9375 210.968 88.07 211.423L88.8815 211.109C88.5668 210.314 87.9375 209.933 87.1508 209.933C85.8506 209.933 85.2295 210.984 85.2295 212.061C85.2295 213.154 85.8755 214.164 87.159 214.164ZM89.7181 214.09H90.5711V212.897L91.2998 212.102L92.5668 214.09H93.5854L91.8795 211.572L93.3949 210.007H92.2438L90.5711 211.829V208.318H89.7181V214.09Z" fill="#2D2D2D"/>
<path d="M42.0541 205.513C39.4828 205.513 37.396 207.6 37.396 210.171C37.396 212.743 39.4828 214.829 42.0541 214.829C44.6254 214.829 46.7123 212.743 46.7123 210.171C46.7123 207.6 44.6254 205.513 42.0541 205.513ZM41.1225 212.363L39.4589 210.7L40.1157 210.043L41.1225 211.045L43.9926 208.175L44.6494 208.836L41.1225 212.363Z" fill="#07C27F"/>
<rect x="203.019" y="203.96" width="14.492" height="14.492" rx="2.07028" fill="white"/>
<rect opacity="0.2" x="203.019" y="203.96" width="14.492" height="14.492" rx="2.07028" fill="#F1A10B"/>
<path d="M209.444 213.018H210.276L208.738 209.23H208.167L206.618 213.018H207.455L207.722 212.306H209.178L209.444 213.018ZM207.988 211.6L208.455 210.366L208.917 211.6H207.988Z" fill="#F1A10B"/>
<path d="M211.227 213.078C211.352 213.078 211.505 213.051 211.662 212.991V212.409C211.592 212.426 211.526 212.436 211.472 212.436C211.363 212.436 211.298 212.404 211.298 212.279V209.23H210.564V212.355C210.564 212.855 210.852 213.078 211.227 213.078Z" fill="#F1A10B"/>
<path d="M212.74 213.078C212.865 213.078 213.017 213.051 213.175 212.991V212.409C213.104 212.426 213.039 212.436 212.985 212.436C212.876 212.436 212.811 212.404 212.811 212.279V209.23H212.077V212.355C212.077 212.855 212.365 213.078 212.74 213.078Z" fill="#F1A10B"/>
<path d="M192.931 68.1901C184.497 68.9621 177.429 61.8945 178.201 53.4603L181.704 15.1882L231.203 64.6868L192.931 68.1901Z" fill="#EBEEF2"/>
<rect x="11" y="53.3943" width="95.9859" height="40.6528" rx="4.14057" fill="#FF4B4B"/>
<path d="M28.0562 86.519H31.8866V75.895H35.9338C41.4264 75.895 44.4257 73.2932 44.4257 68.5233C44.4257 63.8256 41.4626 61.3323 35.9338 61.3323H28.0562V86.519ZM31.8866 72.3176V64.9097H35.5363C39.0053 64.9097 40.523 66.0299 40.523 68.5956C40.523 71.1251 38.9692 72.3176 35.5363 72.3176H31.8866Z" fill="white"/>
<path d="M49.4059 86.519H56.4886C64.9805 86.519 69.5698 82.1465 69.5698 74.1244C69.5698 65.9577 64.836 61.3323 56.5247 61.3323H49.4059V86.519ZM53.2725 82.9415V64.9097H56.4886C62.7401 64.9097 65.6671 67.8006 65.6671 73.9798C65.6671 80.1952 62.7401 82.9415 56.1272 82.9415H53.2725Z" fill="white"/>
<path d="M74.7787 86.519H78.6452V75.3891H90.7146V71.8117H78.6452V64.9097H92.3768V61.3323H74.7787V86.519Z" fill="white"/>
<path d="M0.564697 77.165L10.7279 88.6457H15.4331V77.165H0.564697Z" fill="#C33838"/>
<g filter="url(#filter1_d)">
<path d="M11.2925 13.567C11.2925 6.07673 17.3692 0.0071744 24.8594 0.0160176L170.704 0.188208L198.935 28.6075L220.203 49.6868V256.339C220.203 263.823 214.136 269.89 206.652 269.89H24.8434C17.3595 269.89 11.2925 263.823 11.2925 256.339V13.567Z" fill="white"/>
<path d="M198.717 28.8243L198.719 28.826L219.895 49.815V256.339C219.895 263.653 213.966 269.582 206.652 269.582H24.8434C17.5293 269.582 11.6 263.653 11.6 256.339V13.567C11.6 6.24672 17.5388 0.314921 24.8591 0.323563L170.576 0.495602L198.717 28.8243Z" stroke="#EBEEF2" stroke-width="0.615092"/>
</g>
<rect x="20.8647" y="96.174" width="189.572" height="36.8887" rx="3.95236" fill="white" stroke="#A7B3CC" stroke-width="0.376415"/>
<path d="M152.536 112.188V113.14H155.443L153 117.96H154.142L156.701 112.718V112.188H152.536ZM157.852 115.144H158.937V114.06H157.852V115.144ZM157.852 117.96H158.937V116.884H157.852V117.96ZM162.225 118.043C163.774 118.043 164.163 116.511 164.163 115.087C164.163 113.646 163.757 112.097 162.167 112.097C160.42 112.097 160.221 113.844 160.221 115.078C160.221 116.296 160.436 118.043 162.225 118.043ZM162.2 117.091C161.265 117.091 161.24 116.022 161.24 115.078C161.24 114.101 161.265 113.049 162.167 113.049C163.07 113.049 163.095 114.093 163.095 115.07C163.095 115.997 163.078 117.091 162.2 117.091ZM167.077 118.043C168.626 118.043 169.015 116.511 169.015 115.087C169.015 113.646 168.609 112.097 167.019 112.097C165.272 112.097 165.073 113.844 165.073 115.078C165.073 116.296 165.289 118.043 167.077 118.043ZM167.053 117.091C166.117 117.091 166.092 116.022 166.092 115.078C166.092 114.101 166.117 113.049 167.019 113.049C167.922 113.049 167.947 114.093 167.947 115.07C167.947 115.997 167.93 117.091 167.053 117.091ZM172.204 117.96H173.231V115.567H174.092C175.368 115.567 176.055 114.971 176.055 113.853C176.055 112.751 175.384 112.188 174.092 112.188H172.204V117.96ZM173.231 114.615V113.14H173.985C174.722 113.14 175.02 113.347 175.02 113.869C175.02 114.391 174.713 114.615 173.985 114.615H173.231ZM181.504 112.188L180.013 116.254L178.531 112.188H177.048V117.96H178.084V113.646L179.516 117.455H180.518L181.951 113.646V117.96H182.986V112.188H181.504Z" fill="#2D2D2D"/>
<path d="M42.1827 117.442H43.8058C45.7518 117.442 46.8035 116.44 46.8035 114.602C46.8035 112.73 45.7187 111.67 43.814 111.67H42.1827V117.442ZM43.0687 116.623V112.49H43.8058C45.2384 112.49 45.9092 113.153 45.9092 114.569C45.9092 115.993 45.2384 116.623 43.723 116.623H43.0687ZM49.504 117.517C50.7296 117.517 51.5163 116.565 51.5163 115.397C51.5163 114.221 50.7296 113.285 49.504 113.285C48.2701 113.285 47.4834 114.221 47.4834 115.397C47.4834 116.565 48.2701 117.517 49.504 117.517ZM49.504 116.772C48.709 116.772 48.3364 116.151 48.3364 115.397C48.3364 114.643 48.709 114.031 49.504 114.031C50.2907 114.031 50.6634 114.643 50.6634 115.397C50.6634 116.142 50.299 116.772 49.504 116.772ZM54.0894 117.517C55.315 117.517 56.1017 116.565 56.1017 115.397C56.1017 114.221 55.315 113.285 54.0894 113.285C52.8555 113.285 52.0688 114.221 52.0688 115.397C52.0688 116.565 52.8555 117.517 54.0894 117.517ZM54.0894 116.772C53.2944 116.772 52.9217 116.151 52.9217 115.397C52.9217 114.643 53.2944 114.031 54.0894 114.031C54.8761 114.031 55.2487 114.643 55.2487 115.397C55.2487 116.142 54.8844 116.772 54.0894 116.772ZM59.006 113.285C58.5588 113.285 58.0868 113.517 57.8797 114.031V113.36H57.0185V117.442H57.8715V115.314C57.8715 114.503 58.2276 114.097 58.8404 114.097C59.0308 114.097 59.1882 114.146 59.3455 114.238L59.7596 113.492C59.5111 113.343 59.271 113.285 59.006 113.285ZM61.4799 117.517C62.2583 117.517 63.0285 117.103 63.0285 116.192C63.0285 114.685 60.8174 115.132 60.8174 114.395C60.8174 114.146 61.0576 113.973 61.4385 113.973C61.9105 113.973 62.1672 114.229 62.3246 114.519L62.9871 114.155C62.6889 113.592 62.159 113.285 61.4716 113.285C60.6684 113.285 60.0059 113.699 60.0059 114.461C60.0059 115.952 62.1921 115.422 62.1921 116.242C62.1921 116.531 61.9354 116.796 61.4468 116.796C60.8671 116.796 60.5938 116.432 60.4696 116.093L59.7823 116.399C59.981 117.037 60.6352 117.517 61.4799 117.517Z" fill="#2D2D2D"/>
<path d="M31.0278 109.96C28.4565 109.96 26.3696 112.047 26.3696 114.618C26.3696 117.19 28.4565 119.276 31.0278 119.276C33.5991 119.276 35.6859 117.19 35.6859 114.618C35.6859 112.047 33.5991 109.96 31.0278 109.96ZM30.0961 116.81L28.4325 115.147L29.0893 114.49L30.0961 115.492L32.9662 112.622L33.623 113.283L30.0961 116.81Z" fill="#07C27F"/>
<rect x="191.992" y="108.407" width="14.492" height="14.492" rx="2.07028" fill="white"/>
<rect opacity="0.2" x="191.992" y="108.407" width="14.492" height="14.492" rx="2.07028" fill="#F1A10B"/>
<path d="M198.418 117.465H199.25L197.712 113.677H197.141L195.592 117.465H196.429L196.695 116.753H198.152L198.418 117.465ZM196.962 116.046L197.429 114.813L197.891 116.046H196.962Z" fill="#F1A10B"/>
<path d="M200.201 117.525C200.326 117.525 200.478 117.497 200.636 117.438V116.856C200.565 116.872 200.5 116.883 200.446 116.883C200.337 116.883 200.272 116.851 200.272 116.726V113.677H199.538V116.802C199.538 117.302 199.826 117.525 200.201 117.525Z" fill="#F1A10B"/>
<path d="M201.714 117.525C201.839 117.525 201.991 117.497 202.149 117.438V116.856C202.078 116.872 202.013 116.883 201.958 116.883C201.85 116.883 201.785 116.851 201.785 116.726V113.677H201.051V116.802C201.051 117.302 201.339 117.525 201.714 117.525Z" fill="#F1A10B"/>
<rect x="20.8908" y="136.45" width="189.572" height="36.8887" rx="3.95236" fill="white" stroke="#A7B3CC" stroke-width="0.376415"/>
<path d="M154.632 159.32C155.75 159.32 156.769 158.723 156.769 157.531C156.769 156.901 156.487 156.396 155.932 156.098C156.272 155.858 156.487 155.502 156.487 155.005C156.487 153.986 155.593 153.382 154.632 153.382C153.672 153.382 152.777 153.986 152.777 155.005C152.777 155.502 152.993 155.858 153.332 156.098C152.777 156.396 152.496 156.901 152.496 157.531C152.496 158.732 153.523 159.32 154.632 159.32ZM154.632 155.817C154.119 155.817 153.771 155.535 153.771 155.071C153.771 154.616 154.127 154.334 154.632 154.334C155.137 154.334 155.494 154.616 155.494 155.071C155.494 155.535 155.146 155.817 154.632 155.817ZM154.632 158.375C153.986 158.375 153.49 158.061 153.49 157.44C153.49 156.835 153.962 156.496 154.632 156.496C155.303 156.496 155.775 156.835 155.775 157.44C155.775 158.061 155.278 158.375 154.632 158.375ZM157.878 156.421H158.963V155.336H157.878V156.421ZM157.878 159.237H158.963V158.16H157.878V159.237ZM162.251 159.32C163.8 159.32 164.189 157.787 164.189 156.363C164.189 154.922 163.783 153.374 162.193 153.374C160.446 153.374 160.247 155.121 160.247 156.355C160.247 157.572 160.463 159.32 162.251 159.32ZM162.226 158.367C161.291 158.367 161.266 157.299 161.266 156.355C161.266 155.378 161.291 154.326 162.193 154.326C163.096 154.326 163.121 155.369 163.121 156.347C163.121 157.274 163.104 158.367 162.226 158.367ZM167.104 159.32C168.652 159.32 169.041 157.787 169.041 156.363C169.041 154.922 168.636 153.374 167.046 153.374C165.298 153.374 165.099 155.121 165.099 156.355C165.099 157.572 165.315 159.32 167.104 159.32ZM167.079 158.367C166.143 158.367 166.118 157.299 166.118 156.355C166.118 155.378 166.143 154.326 167.046 154.326C167.948 154.326 167.973 155.369 167.973 156.347C167.973 157.274 167.956 158.367 167.079 158.367ZM172.23 159.237H173.257V156.843H174.118C175.394 156.843 176.081 156.247 176.081 155.129C176.081 154.028 175.41 153.465 174.118 153.465H172.23V159.237ZM173.257 155.891V154.417H174.011C174.748 154.417 175.046 154.624 175.046 155.146C175.046 155.668 174.74 155.891 174.011 155.891H173.257ZM181.53 153.465L180.039 157.531L178.557 153.465H177.075V159.237H178.11V154.922L179.542 158.732H180.544L181.977 154.922V159.237H183.012V153.465H181.53Z" fill="#2D2D2D"/>
<path d="M43.807 158.879C44.9664 158.879 45.7614 158.2 45.7614 157.165C45.7614 156.37 45.3722 155.931 44.1134 155.451C43.2356 155.112 42.921 154.863 42.921 154.474C42.921 154.076 43.2688 153.753 43.7491 153.753C44.1714 153.753 44.5441 153.994 44.7594 154.408L45.4964 153.952C45.1403 153.306 44.5358 152.967 43.7739 152.967C42.7305 152.967 42.0349 153.58 42.0349 154.515C42.0349 155.277 42.4572 155.708 43.6497 156.163C44.5606 156.519 44.8753 156.793 44.8753 157.24C44.8753 157.753 44.4613 158.084 43.8236 158.084C43.1114 158.084 42.6228 157.67 42.54 156.991L41.654 157.215C41.8196 158.209 42.6808 158.879 43.807 158.879ZM48.7972 154.656C48.2424 154.656 47.7952 154.863 47.5302 155.236V153.041H46.6772V158.813H47.5302V157.099C47.5302 155.94 47.8532 155.401 48.5488 155.401C49.0953 155.401 49.352 155.724 49.352 156.437V158.813H50.205V156.221C50.205 155.211 49.7081 154.656 48.7972 154.656ZM53.048 158.888C54.2736 158.888 55.0603 157.935 55.0603 156.768C55.0603 155.592 54.2736 154.656 53.048 154.656C51.8141 154.656 51.0274 155.592 51.0274 156.768C51.0274 157.935 51.8141 158.888 53.048 158.888ZM53.048 158.142C52.253 158.142 51.8804 157.521 51.8804 156.768C51.8804 156.014 52.253 155.401 53.048 155.401C53.8347 155.401 54.2074 156.014 54.2074 156.768C54.2074 157.513 53.843 158.142 53.048 158.142ZM56.584 158.813H57.3541L58.2568 155.931L59.1511 158.813H59.9296L61.1635 154.731H60.2608L59.4907 157.505L58.6212 154.731H57.8841L57.0063 157.513L56.2527 154.731H55.3418L56.584 158.813ZM65.7634 158.879C66.9227 158.879 67.7177 158.2 67.7177 157.165C67.7177 156.37 67.3285 155.931 66.0698 155.451C65.192 155.112 64.8773 154.863 64.8773 154.474C64.8773 154.076 65.2251 153.753 65.7054 153.753C66.1277 153.753 66.5004 153.994 66.7157 154.408L67.4527 153.952C67.0966 153.306 66.4921 152.967 65.7302 152.967C64.6868 152.967 63.9912 153.58 63.9912 154.515C63.9912 155.277 64.4135 155.708 65.606 156.163C66.517 156.519 66.8316 156.793 66.8316 157.24C66.8316 157.753 66.4176 158.084 65.7799 158.084C65.0678 158.084 64.5792 157.67 64.4964 156.991L63.6103 157.215C63.7759 158.209 64.6371 158.879 65.7634 158.879ZM70.678 158.076C70.4958 158.134 70.3302 158.167 70.1894 158.167C69.8665 158.167 69.676 158.002 69.676 157.654V155.418H70.678V154.731H69.676V153.083L68.8231 153.712V154.731H68.1523V155.418H68.8231V157.728C68.8231 158.548 69.3365 158.888 69.9824 158.888C70.206 158.888 70.4462 158.846 70.6863 158.772L70.678 158.076ZM73.1655 154.656C72.4367 154.656 71.8571 154.938 71.385 155.517L72.0061 156.039C72.3125 155.617 72.71 155.401 73.1572 155.401C73.6955 155.401 74.0184 155.716 74.0184 156.246V156.387H73.0661C72.4864 156.387 72.1055 156.453 71.8239 156.594C71.4596 156.776 71.2608 157.124 71.2608 157.588C71.2608 158.366 71.8405 158.888 72.71 158.888C73.2897 158.888 73.7617 158.648 74.0267 158.234L74.093 158.813H74.8714V156.246C74.8714 155.252 74.2255 154.656 73.1655 154.656ZM72.8674 158.167C72.4036 158.167 72.1138 157.952 72.1138 157.604C72.1138 157.43 72.1717 157.29 72.296 157.207C72.4533 157.082 72.6934 157.041 73.1655 157.041H74.0184V157.058C74.0184 157.704 73.5298 158.167 72.8674 158.167ZM78.0205 154.656C77.5733 154.656 77.1013 154.888 76.8942 155.401V154.731H76.033V158.813H76.886V156.685C76.886 155.873 77.2421 155.468 77.8549 155.468C78.0453 155.468 78.2027 155.517 78.36 155.608L78.7741 154.863C78.5256 154.714 78.2855 154.656 78.0205 154.656ZM81.5875 158.076C81.4053 158.134 81.2396 158.167 81.0989 158.167C80.7759 158.167 80.5854 158.002 80.5854 157.654V155.418H81.5875V154.731H80.5854V153.083L79.7325 153.712V154.731H79.0617V155.418H79.7325V157.728C79.7325 158.548 80.2459 158.888 80.8918 158.888C81.1154 158.888 81.3556 158.846 81.5957 158.772L81.5875 158.076ZM83.8748 158.888C84.6532 158.888 85.4234 158.474 85.4234 157.563C85.4234 156.056 83.2123 156.503 83.2123 155.766C83.2123 155.517 83.4525 155.343 83.8334 155.343C84.3054 155.343 84.5621 155.6 84.7195 155.89L85.382 155.526C85.0838 154.963 84.5538 154.656 83.8665 154.656C83.0632 154.656 82.4007 155.07 82.4007 155.832C82.4007 157.323 84.587 156.793 84.587 157.612C84.587 157.902 84.3303 158.167 83.8417 158.167C83.262 158.167 82.9887 157.803 82.8645 157.463L82.1772 157.77C82.3759 158.407 83.0301 158.888 83.8748 158.888Z" fill="#2D2D2D"/>
<path d="M31.0541 150.237C28.4828 150.237 26.396 152.324 26.396 154.895C26.396 157.466 28.4828 159.553 31.0541 159.553C33.6254 159.553 35.7123 157.466 35.7123 154.895C35.7123 152.324 33.6254 150.237 31.0541 150.237ZM30.1225 157.087L28.4589 155.423L29.1157 154.767L30.1225 155.769L32.9926 152.899L33.6494 153.56L30.1225 157.087Z" fill="#07C27F"/>
<rect x="192.019" y="148.684" width="14.492" height="14.492" rx="2.07028" fill="white"/>
<rect opacity="0.2" x="192.019" y="148.684" width="14.492" height="14.492" rx="2.07028" fill="#F1A10B"/>
<path d="M198.444 157.742H199.276L197.738 153.954H197.167L195.618 157.742H196.455L196.722 157.03H198.178L198.444 157.742ZM196.988 156.323L197.455 155.09L197.917 156.323H196.988Z" fill="#F1A10B"/>
<path d="M200.227 157.801C200.352 157.801 200.505 157.774 200.662 157.714V157.133C200.592 157.149 200.526 157.16 200.472 157.16C200.363 157.16 200.298 157.127 200.298 157.002V153.954H199.564V157.079C199.564 157.579 199.852 157.801 200.227 157.801Z" fill="#F1A10B"/>
<path d="M201.74 157.801C201.865 157.801 202.017 157.774 202.175 157.714V157.133C202.104 157.149 202.039 157.16 201.985 157.16C201.876 157.16 201.811 157.127 201.811 157.002V153.954H201.077V157.079C201.077 157.579 201.365 157.801 201.74 157.801Z" fill="#F1A10B"/>
<rect x="20.8908" y="176.727" width="189.572" height="36.8887" rx="3.95236" fill="white" stroke="#A7B3CC" stroke-width="0.376415"/>
<path d="M149.617 192.694V193.042C149.617 193.431 149.435 193.597 149.037 193.597H148.267V194.425H149.617V198.466H150.611V192.694H149.617ZM154.469 192.694V193.042C154.469 193.431 154.287 193.597 153.89 193.597H153.12V194.425H154.469V198.466H155.463V192.694H154.469ZM157.831 195.65H158.916V194.566H157.831V195.65ZM157.831 198.466H158.916V197.39H157.831V198.466ZM162.204 198.549C163.753 198.549 164.142 197.017 164.142 195.593C164.142 194.152 163.736 192.603 162.146 192.603C160.399 192.603 160.2 194.35 160.2 195.584C160.2 196.802 160.416 198.549 162.204 198.549ZM162.179 197.597C161.244 197.597 161.219 196.528 161.219 195.584C161.219 194.607 161.244 193.555 162.146 193.555C163.049 193.555 163.074 194.599 163.074 195.576C163.074 196.503 163.057 197.597 162.179 197.597ZM167.056 198.549C168.605 198.549 168.994 197.017 168.994 195.593C168.994 194.152 168.588 192.603 166.999 192.603C165.251 192.603 165.052 194.35 165.052 195.584C165.052 196.802 165.268 198.549 167.056 198.549ZM167.032 197.597C166.096 197.597 166.071 196.528 166.071 195.584C166.071 194.607 166.096 193.555 166.999 193.555C167.901 193.555 167.926 194.599 167.926 195.576C167.926 196.503 167.909 197.597 167.032 197.597ZM172.183 198.466H173.21V196.073H174.071C175.347 196.073 176.034 195.477 176.034 194.359C176.034 193.257 175.363 192.694 174.071 192.694H172.183V198.466ZM173.21 195.12V193.646H173.964C174.701 193.646 174.999 193.853 174.999 194.375C174.999 194.897 174.693 195.12 173.964 195.12H173.21ZM181.483 192.694L179.992 196.76L178.51 192.694H177.027V198.466H178.063V194.152L179.495 197.961H180.497L181.93 194.152V198.466H182.965V192.694H181.483Z" fill="#2D2D2D"/>
<path d="M42.2088 199.09H45.6123V198.27H43.0949V193.318H42.2088V199.09ZM46.369 194.212H47.2799V193.318H46.369V194.212ZM46.4021 199.09H47.255V195.007H46.4021V199.09ZM50.6572 194.933C50.1272 194.933 49.6635 195.123 49.3819 195.512V195.007H48.529V199.09H49.3819V197.392C49.3819 196.523 49.531 195.678 50.4088 195.678C51.1127 195.678 51.2038 196.233 51.2038 196.713V199.09H52.0567V196.498C52.0567 195.496 51.5599 194.933 50.6572 194.933ZM56.6473 196.945C56.6473 195.877 56.0676 194.933 54.8006 194.933C53.5004 194.933 52.9042 195.976 52.9042 197.069C52.9042 198.187 53.517 199.164 54.8668 199.164C55.5376 199.164 56.051 198.949 56.5148 198.444L55.9185 197.93C55.6121 198.278 55.2726 198.394 54.8751 198.394C54.1795 198.394 53.7903 197.972 53.7572 197.318H56.6224C56.639 197.193 56.6473 197.069 56.6473 196.945ZM53.7572 196.663C53.7986 196.15 54.1298 195.645 54.8006 195.645C55.4051 195.645 55.8109 196.034 55.8274 196.614V196.663H53.7572ZM62.1738 199.164C63.3829 199.164 64.2855 198.576 64.6996 197.516L63.8715 197.202C63.5982 197.93 63.0019 198.32 62.1738 198.32C61.0062 198.32 60.3188 197.541 60.3188 196.191C60.3188 194.85 60.9979 194.08 62.1904 194.08C63.0185 194.08 63.5982 194.452 63.8715 195.173L64.683 194.858C64.2689 193.806 63.3829 193.235 62.1904 193.235C60.4928 193.235 59.4328 194.378 59.4328 196.2C59.4328 198.013 60.4928 199.164 62.1738 199.164ZM67.6481 194.933C67.0933 194.933 66.6461 195.14 66.3811 195.512V193.318H65.5281V199.09H66.3811V197.376C66.3811 196.216 66.7041 195.678 67.3997 195.678C67.9462 195.678 68.2029 196.001 68.2029 196.713V199.09H69.0559V196.498C69.0559 195.487 68.559 194.933 67.6481 194.933ZM73.6462 196.945C73.6462 195.877 73.0666 194.933 71.7995 194.933C70.4994 194.933 69.9032 195.976 69.9032 197.069C69.9032 198.187 70.516 199.164 71.8658 199.164C72.5366 199.164 73.05 198.949 73.5137 198.444L72.9175 197.93C72.6111 198.278 72.2716 198.394 71.8741 198.394C71.1785 198.394 70.7892 197.972 70.7561 197.318H73.6214C73.638 197.193 73.6462 197.069 73.6462 196.945ZM70.7561 196.663C70.7975 196.15 71.1288 195.645 71.7995 195.645C72.4041 195.645 72.8098 196.034 72.8264 196.614V196.663H70.7561ZM76.159 199.164C76.9457 199.164 77.5668 198.742 77.8401 197.98L77.0617 197.682C76.9375 198.137 76.5897 198.419 76.159 198.419C75.3972 198.419 75.0991 197.773 75.0991 197.061C75.0991 196.349 75.4055 195.678 76.1508 195.678C76.5979 195.678 76.9375 195.968 77.07 196.423L77.8815 196.109C77.5668 195.314 76.9375 194.933 76.1508 194.933C74.8506 194.933 74.2295 195.984 74.2295 197.061C74.2295 198.154 74.8755 199.164 76.159 199.164ZM78.7181 199.09H79.5711V197.897L80.2998 197.102L81.5668 199.09H82.5854L80.8795 196.572L82.3949 195.007H81.2438L79.5711 196.829V193.318H78.7181V199.09Z" fill="#2D2D2D"/>
<path d="M31.0541 190.513C28.4828 190.513 26.396 192.6 26.396 195.171C26.396 197.743 28.4828 199.829 31.0541 199.829C33.6254 199.829 35.7123 197.743 35.7123 195.171C35.7123 192.6 33.6254 190.513 31.0541 190.513ZM30.1225 197.363L28.4589 195.7L29.1157 195.043L30.1225 196.045L32.9926 193.175L33.6494 193.836L30.1225 197.363Z" fill="#07C27F"/>
<rect x="192.019" y="188.96" width="14.492" height="14.492" rx="2.07028" fill="white"/>
<rect opacity="0.2" x="192.019" y="188.96" width="14.492" height="14.492" rx="2.07028" fill="#F1A10B"/>
<path d="M198.444 198.018H199.276L197.738 194.23H197.167L195.618 198.018H196.455L196.722 197.306H198.178L198.444 198.018ZM196.988 196.6L197.455 195.366L197.917 196.6H196.988Z" fill="#F1A10B"/>
<path d="M200.227 198.078C200.352 198.078 200.505 198.051 200.662 197.991V197.409C200.592 197.426 200.526 197.436 200.472 197.436C200.363 197.436 200.298 197.404 200.298 197.279V194.23H199.564V197.355C199.564 197.855 199.852 198.078 200.227 198.078Z" fill="#F1A10B"/>
<path d="M201.74 198.078C201.865 198.078 202.017 198.051 202.175 197.991V197.409C202.104 197.426 202.039 197.436 201.985 197.436C201.876 197.436 201.811 197.404 201.811 197.279V194.23H201.077V197.355C201.077 197.855 201.365 198.078 201.74 198.078Z" fill="#F1A10B"/>
<path d="M181.931 53.1901C173.497 53.9621 166.429 46.8945 167.201 38.4603L170.704 0.188201L220.203 49.6868L181.931 53.1901Z" fill="#EBEEF2"/>
<rect y="38.3943" width="95.9859" height="40.6528" rx="4.14057" fill="#FF4B4B"/>
<path d="M17.0562 71.519H20.8866V60.895H24.9338C30.4264 60.895 33.4257 58.2932 33.4257 53.5233C33.4257 48.8256 30.4626 46.3323 24.9338 46.3323H17.0562V71.519ZM20.8866 57.3176V49.9097H24.5363C28.0053 49.9097 29.523 51.0299 29.523 53.5956C29.523 56.1251 27.9692 57.3176 24.5363 57.3176H20.8866Z" fill="white"/>
<path d="M38.4059 71.519H45.4886C53.9805 71.519 58.5698 67.1465 58.5698 59.1244C58.5698 50.9577 53.836 46.3323 45.5247 46.3323H38.4059V71.519ZM42.2725 67.9415V49.9097H45.4886C51.7401 49.9097 54.6671 52.8006 54.6671 58.9798C54.6671 65.1952 51.7401 67.9415 45.1272 67.9415H42.2725Z" fill="white"/>
<path d="M63.7787 71.519H67.6452V60.3891H79.7146V56.8117H67.6452V49.9097H81.3768V46.3323H63.7787V71.519Z" fill="white"/>
<defs>
<filter id="filter0_d" x="19.8223" y="15.016" width="213.851" height="274.814" filterUnits="userSpaceOnUse" color-interpolation-filters="sRGB">
<feFlood flood-opacity="0" result="BackgroundImageFix"/>
<feColorMatrix in="SourceAlpha" type="matrix" values="0 0 0 0 0 0 0 0 0 0 0 0 0 0 0 0 0 0 127 0" result="hardAlpha"/>
<feOffset dy="2.47016"/>
<feGaussianBlur stdDeviation="1.23508"/>
<feColorMatrix type="matrix" values="0 0 0 0 0 0 0 0 0 0 0 0 0 0 0 0 0 0 0.25 0"/>
<feBlend mode="normal" in2="BackgroundImageFix" result="effect1_dropShadow"/>
<feBlend mode="normal" in="SourceGraphic" in2="effect1_dropShadow" result="shape"/>
</filter>
<filter id="filter1_d" x="8.82232" y="0.0159912" width="213.851" height="274.814" filterUnits="userSpaceOnUse" color-interpolation-filters="sRGB">
<feFlood flood-opacity="0" result="BackgroundImageFix"/>
<feColorMatrix in="SourceAlpha" type="matrix" values="0 0 0 0 0 0 0 0 0 0 0 0 0 0 0 0 0 0 127 0" result="hardAlpha"/>
<feOffset dy="2.47016"/>
<feGaussianBlur stdDeviation="1.23508"/>
<feColorMatrix type="matrix" values="0 0 0 0 0 0 0 0 0 0 0 0 0 0 0 0 0 0 0.25 0"/>
<feBlend mode="normal" in2="BackgroundImageFix" result="effect1_dropShadow"/>
<feBlend mode="normal" in="SourceGraphic" in2="effect1_dropShadow" result="shape"/>
</filter>
</defs>
</svg>
